<?xml version="1.0" standalone="no"?>
<!DOCTYPE svg PUBLIC "-//W3C//DTD SVG 20010904//EN"
 "http://www.w3.org/TR/2001/REC-SVG-20010904/DTD/svg10.dtd">
<svg version="1.0" xmlns="http://www.w3.org/2000/svg"
 width="322.000000pt" height="322.000000pt" viewBox="0 0 322.000000 322.000000"
 preserveAspectRatio="xMidYMid meet">
<metadata>
Created by potrace 1.11, written by Peter Selinger 2001-2013
</metadata>
<g transform="translate(0.000000,322.000000) scale(0.100000,-0.100000)"
fill="#000000" stroke="none">
<path d="M1620 1829 c-15 -18 -30 -39 -32 -48 -4 -14 -3 -291 1 -332 1 -18 56
-79 70 -79 5 0 17 7 25 16 15 14 14 19 -8 57 -23 39 -24 53 -25 172 0 121 2
133 25 167 28 44 28 42 8 62 -22 22 -31 20 -64 -15z"/>
<path d="M2942 1848 c-17 -17 -15 -36 8 -65 18 -23 20 -41 20 -168 0 -127 -2
-145 -20 -168 -24 -30 -25 -50 -5 -67 12 -10 20 -9 40 4 42 27 55 67 56 163 1
246 2 238 -35 277 -36 39 -46 42 -64 24z"/>
<path d="M95 1803 c-72 -19 -95 -64 -95 -188 0 -143 33 -188 136 -188 80 0
135 49 120 107 -9 38 -51 36 -71 -3 -26 -51 -82 -53 -104 -4 -7 14 -11 59 -10
101 2 60 6 78 22 93 35 32 70 20 103 -36 7 -14 17 -16 37 -11 21 5 27 12 27
34 -1 63 -90 115 -165 95z"/>
<path d="M374 1790 c-59 -30 -76 -71 -73 -184 1 -72 6 -97 21 -119 28 -39 61
-59 105 -62 54 -3 90 12 120 52 23 30 26 44 28 129 2 73 -2 102 -15 126 -37
69 -115 93 -186 58z m112 -75 c9 -12 14 -47 14 -102 0 -70 -3 -86 -20 -103
-25 -25 -51 -25 -80 -2 -21 17 -23 28 -24 104 -1 70 2 90 17 106 23 25 74 23
93 -3z"/>
<path d="M645 1789 c-12 -12 -15 -50 -15 -175 0 -87 4 -166 10 -174 6 -10 29
-14 88 -13 141 1 176 39 176 189 0 146 -35 184 -174 188 -54 1 -74 -2 -85 -15z
m167 -79 c14 -17 18 -40 18 -95 0 -90 -16 -115 -78 -120 -48 -4 -44 -12 -44
110 0 145 -4 133 44 130 29 -2 48 -10 60 -25z"/>
<path d="M994 1801 c-10 -2 -22 -8 -26 -15 -11 -15 -10 -328 1 -344 9 -15 187
-23 221 -10 22 8 27 43 8 55 -7 4 -46 7 -87 8 l-75 0 -2 43 c-1 23 1 42 5 43
3 0 34 1 69 2 58 2 81 13 82 38 0 17 -32 28 -90 31 l-64 3 -2 38 c-1 20 1 38
4 38 4 1 39 2 77 3 39 1 76 5 83 9 15 10 16 43 0 53 -12 7 -171 12 -204 5z"/>
<path d="M1280 1798 c-19 -7 -20 -17 -20 -182 0 -152 2 -176 16 -184 23 -13
54 -3 55 17 1 9 2 41 3 71 1 51 3 55 26 55 14 0 29 -8 35 -20 47 -93 81 -134
105 -128 33 9 32 38 -3 98 l-34 58 28 26 c57 52 41 155 -29 182 -32 13 -154
17 -182 7z m166 -83 c13 -17 9 -39 -9 -62 -5 -7 -30 -13 -56 -13 l-47 0 2 48
c1 26 2 48 3 48 0 1 22 0 48 -2 30 -1 51 -8 59 -19z"/>
<path d="M1761 1794 c-13 -10 -16 -37 -16 -178 -1 -91 2 -171 6 -178 5 -7 38
-11 91 -11 139 0 175 42 173 200 -2 96 -14 127 -61 158 -31 20 -168 26 -193 9z
m159 -79 c17 -15 20 -31 20 -101 0 -77 -2 -84 -26 -103 -16 -13 -38 -20 -58
-18 l-31 2 -3 121 -3 121 41 -2 c22 -1 49 -10 60 -20z"/>
<path d="M2138 1791 c-62 -31 -73 -60 -73 -181 0 -106 1 -109 29 -139 66 -69
173 -61 223 16 25 38 25 217 0 256 -38 58 -117 80 -179 48z m102 -71 c17 -17
20 -33 20 -105 0 -72 -3 -88 -20 -105 -25 -25 -51 -25 -81 -1 -20 16 -23 27
-23 106 0 80 2 89 23 106 30 24 56 24 81 -1z"/>
<path d="M2520 1802 c-27 -9 -30 -25 -30 -152 0 -69 -4 -131 -9 -139 -10 -15
-66 -20 -92 -7 -24 11 -52 -20 -39 -44 18 -34 85 -46 140 -24 64 26 77 62 75
212 -1 67 -3 128 -4 136 -1 17 -20 25 -41 18z"/>
<path d="M2715 1802 c-32 -7 -65 -33 -82 -66 -23 -43 -23 -199 0 -242 48 -93
197 -92 242 2 26 55 24 203 -4 248 -30 48 -92 71 -156 58z m61 -68 c31 -8 41
-39 40 -128 -1 -69 -4 -80 -25 -97 -28 -23 -49 -24 -76 -3 -17 13 -20 28 -22
103 -2 76 1 91 18 110 21 22 30 24 65 15z"/>
<path d="M3132 1647 c-18 -22 -23 -54 -10 -64 37 -29 74 -18 82 24 7 36 -50
68 -72 40z"/>
<path d="M3135 1510 c-3 -5 -15 -36 -26 -67 l-20 -58 22 -18 c20 -16 24 -16
37 -3 23 23 51 120 40 140 -10 18 -43 22 -53 6z"/>
</g>
</svg>
